G:\RME\Thesis\opencap-processing\Data\089bb815-6ab6-4c35-820c-ac6f9c5db3e0\OpenSimData\Dynamics\walking\GRF_resultant_walking_0.mot
version=1
nRows=30
nColumns=19
inDegrees=yes
endheader 
time	ground_force_right_vx	ground_force_right_vy	ground_force_right_vz	ground_force_right_px	ground_force_right_py	ground_force_right_pz	ground_torque_right_x	ground_torque_right_y	ground_torque_right_z	ground_force_left_vx	ground_force_left_vy	ground_force_left_vz	ground_force_left_px	ground_force_left_py	ground_force_left_pz	ground_torque_left_x	ground_torque_left_y	ground_torque_left_z	
          3.00000000	         -8.18996740	        662.04555721	         15.57661070	          1.15091946	          0.00000000	         -0.22242617	          0.00000000	          0.03588347	          0.00000000	        -24.15766941	        222.49399412	        -26.85172435	          0.96867641	          0.00000000	         -0.37379264	          0.00000000	          0.08026661	          0.00000000	
          3.01000000	        -13.48151696	        725.68879220	         10.98689469	          1.15150952	          0.00000000	         -0.22191268	          0.00000000	         -1.22733717	          0.00000000	        -23.28988945	        185.73647635	        -27.67857762	          0.97034386	          0.00000000	         -0.37371397	          0.00000000	          0.01775532	          0.00000000	
          3.02000000	        -15.82666331	        771.68310664	          5.79910917	          1.15181699	          0.00000000	         -0.22146100	          0.00000000	         -2.71593650	          0.00000000	        -22.57244990	        151.36702716	        -27.33458662	          0.97175051	          0.00000000	         -0.37341918	          0.00000000	         -0.00783672	          0.00000000	
          3.03000000	        -14.16338175	        799.63968315	          1.97066670	          1.15187067	          0.00000000	         -0.22102951	          0.00000000	         -4.28219796	          0.00000000	        -23.35605034	        120.53349262	        -26.14402547	          0.97295821	          0.00000000	         -0.37270701	          0.00000000	         -0.00823075	          0.00000000	
          3.04000000	        -10.42453033	        812.37970620	         -2.88383185	          1.15168655	          0.00000000	         -0.22061358	          0.00000000	         -5.84507569	          0.00000000	        -25.09920878	         93.76503682	        -23.88136472	          0.97414610	          0.00000000	         -0.37139489	          0.00000000	          0.00226963	          0.00000000	
          3.05000000	         -8.11408259	        814.30323623	        -12.35420864	          1.15123078	          0.00000000	         -0.22022626	          0.00000000	         -7.27488150	          0.00000000	        -26.34249123	         71.24106392	        -19.53390788	          0.97558279	          0.00000000	         -0.36942245	          0.00000000	          0.00919484	          0.00000000	
          3.06000000	         -6.21975855	        809.31523338	        -21.95264066	          1.15052915	          0.00000000	         -0.21981631	          0.00000000	         -8.39681788	          0.00000000	        -25.67744060	         52.82397488	        -12.39784587	          0.97739939	          0.00000000	         -0.36717186	          0.00000000	          0.01116076	          0.00000000	
          3.07000000	         -6.53703462	        800.11816008	        -31.80051860	          1.14956589	          0.00000000	         -0.21938102	          0.00000000	         -9.10203292	          0.00000000	        -24.07638442	         38.46299171	         -5.49851578	          0.97958579	          0.00000000	         -0.36531764	          0.00000000	          0.01046506	          0.00000000	
          3.08000000	         -4.83716066	        788.58159839	        -41.24788746	          1.14846385	          0.00000000	         -0.21890695	          0.00000000	         -9.36724686	          0.00000000	        -20.76561907	         27.02479199	          0.46668448	          0.98237900	          0.00000000	         -0.36360204	          0.00000000	          0.00790208	          0.00000000	
          3.09000000	         -9.86031253	        776.71675831	        -50.69965132	          1.14719006	          0.00000000	         -0.21839664	          0.00000000	         -9.15673328	          0.00000000	        -15.66903978	         17.97704039	          4.42651115	          0.98590329	          0.00000000	         -0.36209493	          0.00000000	          0.00057038	          0.00000000	
          3.10000000	        -14.75601623	        767.02588392	        -55.75186986	          1.14594947	          0.00000000	         -0.21778240	          0.00000000	         -8.59294365	          0.00000000	         -8.76151515	         10.84893347	          4.99875118	          0.99019114	          0.00000000	         -0.36175649	          0.00000000	          0.00040459	          0.00000000	
          3.11000000	        -16.46811424	        761.30433121	        -58.19625678	          1.14490295	          0.00000000	         -0.21706350	          0.00000000	         -7.88499216	          0.00000000	         -4.32274062	          6.01658512	          3.84373157	          0.99449155	          0.00000000	         -0.36299022	          0.00000000	          0.00017751	          0.00000000	
          3.12000000	        -14.82834973	        759.86541229	        -58.05701644	          1.14415665	          0.00000000	         -0.21622187	          0.00000000	         -7.23688255	          0.00000000	         -2.23016687	          3.52499713	          2.73491704	          0.99869408	          0.00000000	         -0.36564569	          0.00000000	          0.00005320	          0.00000000	
          3.13000000	        -11.73441261	        762.71104754	        -57.25092894	          1.14374201	          0.00000000	         -0.21527580	          0.00000000	         -6.74384798	          0.00000000	         -1.50862475	          2.58713571	          2.25674469	          1.00288126	          0.00000000	         -0.36951355	          0.00000000	          0.00001291	          0.00000000	
          3.14000000	         -8.91298379	        768.71344303	        -57.54350369	          1.14365327	          0.00000000	         -0.21424982	          0.00000000	         -6.42984400	          0.00000000	         -1.18789691	          2.06313335	          1.94059440	          1.00728151	          0.00000000	         -0.37438020	          0.00000000	          0.00000299	          0.00000000	
          3.15000000	         -6.33264844	        777.05175042	        -59.25186187	          1.14387899	          0.00000000	         -0.21316124	          0.00000000	         -6.25313444	          0.00000000	         -1.01842976	          1.68350656	          1.66859729	          1.01213822	          0.00000000	         -0.38005762	          0.00000000	          0.00000073	          0.00000000	
          3.16000000	         -3.62209121	        786.38151985	        -59.68149739	          1.14439617	          0.00000000	         -0.21200382	          0.00000000	         -6.16913061	          0.00000000	         -0.96799380	          1.45045267	          1.48636992	          1.01769221	          0.00000000	         -0.38640531	          0.00000000	          0.00000019	          0.00000000	
          3.17000000	         -1.00101691	        794.39284017	        -59.22053978	          1.14513587	          0.00000000	         -0.21081767	          0.00000000	         -6.04460868	          0.00000000	         -1.03964804	          1.37098630	          1.42566652	          1.02417011	          0.00000000	         -0.39327061	          0.00000000	          0.00000005	          0.00000000	
          3.18000000	          1.10142055	        799.23773558	        -57.94251618	          1.14604596	          0.00000000	         -0.20963109	          0.00000000	         -5.90408782	          0.00000000	         -1.25085904	          1.43453556	          1.48116920	          1.03176581	          0.00000000	         -0.40046054	          0.00000000	          0.00000002	          0.00000000	
          3.19000000	          2.51678128	        799.30814883	        -55.83490496	          1.14705584	          0.00000000	         -0.20847353	          0.00000000	         -5.69885500	          0.00000000	         -1.65969091	          1.65893710	          1.66388420	          1.04062587	          0.00000000	         -0.40777857	          0.00000000	          0.00000001	          0.00000000	
          3.20000000	          2.94250461	        793.93779955	        -50.86545087	          1.14811357	          0.00000000	         -0.20734623	          0.00000000	         -5.45240246	          0.00000000	         -2.37217985	          2.08662722	          1.98515606	          1.05085469	          0.00000000	         -0.41503097	          0.00000000	          0.00000000	          0.00000000	
          3.21000000	          1.51346456	        782.72137303	        -41.51570653	          1.14915666	          0.00000000	         -0.20625292	          0.00000000	         -5.19690800	          0.00000000	         -3.52528344	          2.77044224	          2.43883999	          1.06249872	          0.00000000	         -0.42203834	          0.00000000	          0.00000000	          0.00000000	
          3.22000000	          0.02284815	        766.43861840	        -32.56885098	          1.15017918	          0.00000000	         -0.20525339	          0.00000000	         -4.95518317	          0.00000000	         -5.28057556	          3.76208469	          2.96519408	          1.07556732	          0.00000000	         -0.42860170	          0.00000000	          0.00000000	          0.00000000	
          3.23000000	         -1.53148054	        746.38913406	        -24.88374333	          1.15113775	          0.00000000	         -0.20436478	          0.00000000	         -4.71043415	          0.00000000	         -7.67961185	          5.04076231	          3.44412027	          1.09002154	          0.00000000	         -0.43455954	          0.00000000	          0.00000000	          0.00000000	
          3.24000000	         -4.12296239	        724.76594159	        -17.47357004	          1.15201040	          0.00000000	         -0.20357422	          0.00000000	         -4.50370014	          0.00000000	        -10.66764983	          6.54746306	          3.74199958	          1.10579686	          0.00000000	         -0.43979501	          0.00000000	          0.00000000	          0.00000000	
          3.25000000	         -7.03807795	        703.42130909	         -9.79282781	          1.15281730	          0.00000000	         -0.20286659	          0.00000000	         -4.39156273	          0.00000000	        -14.39581519	          8.37651988	          3.83589696	          1.12280127	          0.00000000	         -0.44422405	          0.00000000	          0.00000000	          0.00000000	
          3.26000000	        -10.77774032	        683.74399636	         -0.44104130	          1.15356113	          0.00000000	         -0.20221957	          0.00000000	         -4.37669014	          0.00000000	        -19.43094888	         10.85263633	          3.73551826	          1.14090676	          0.00000000	         -0.44777755	          0.00000000	          0.00000000	          0.00000000	
          3.27000000	        -13.84372769	        666.83207888	          5.23754537	          1.15429934	          0.00000000	         -0.20167868	          0.00000000	         -4.50855681	          0.00000000	        -25.66354514	         13.91572145	          3.18706283	          1.15994688	          0.00000000	         -0.45038310	          0.00000000	          0.00000000	          0.00000000	
          3.28000000	        -15.32437905	        654.11325324	          5.26618998	          1.15507004	          0.00000000	         -0.20124861	          0.00000000	         -4.74900866	          0.00000000	        -31.70327883	         16.86239833	          1.95989454	          1.17972623	          0.00000000	         -0.45198013	          0.00000000	          0.00000000	          0.00000000	
          3.29000000	        -16.79255813	        646.79959053	          2.90871226	          1.15587865	          0.00000000	         -0.20087532	          0.00000000	         -5.06357575	          0.00000000	        -35.52126901	         18.69928723	          0.21010561	          1.20004333	          0.00000000	         -0.45255583	          0.00000000	          0.00000001	          0.00000000	
